<?xml version="1.0" encoding="utf-8"?>
<!-- Generator: Adobe Illustrator 15.1.0, SVG Export Plug-In . SVG Version: 6.00 Build 0)  -->
<!DOCTYPE svg PUBLIC "-//W3C//DTD SVG 1.1//EN" "http://www.w3.org/Graphics/SVG/1.1/DTD/svg11.dtd">
<svg version="1.1" id="Layer_1" xmlns="http://www.w3.org/2000/svg" xmlns:xlink="http://www.w3.org/1999/xlink" x="0px" y="0px"
	 width="40px" height="40px" viewBox="0 0 40 40" enable-background="new 0 0 40 40" xml:space="preserve">
<path fill="#D44345" d="M20,0C8.954,0,0,8.956,0,20c0,11.047,8.954,20,20,20c11.046,0,20-8.953,20-20C40,8.956,31.046,0,20,0z
	 M31.743,25.339l-10.133-5.16c-0.888-0.452-2.339-0.451-3.227,0l-10.125,5.16c-0.888,0.452-1.042,0.24-0.345-0.469l10.814-10.999
	c0.698-0.71,1.84-0.71,2.538,0l10.82,11C32.785,25.58,32.63,25.791,31.743,25.339z"/>
</svg>
