<?xml version="1.0" encoding="utf-8"?>
<!-- Generator: Adobe Illustrator 15.1.0, SVG Export Plug-In . SVG Version: 6.00 Build 0)  -->
<!DOCTYPE svg PUBLIC "-//W3C//DTD SVG 1.1//EN" "http://www.w3.org/Graphics/SVG/1.1/DTD/svg11.dtd">
<svg version="1.1" id="Layer_1" xmlns="http://www.w3.org/2000/svg" xmlns:xlink="http://www.w3.org/1999/xlink" x="0px" y="0px"
	 width="345.995px" height="51.318px" viewBox="0 0 345.995 51.318" enable-background="new 0 0 345.995 51.318"
	 xml:space="preserve">
<g>
	<path fill="#D54445" d="M24.631,0C11.028,0,0,11.03,0,24.631c0,13.604,11.028,24.632,24.631,24.632
		c13.604,0,24.632-11.027,24.632-24.632C49.263,11.03,38.235,0,24.631,0z M39.094,31.207l-12.479-6.354
		c-1.094-0.557-2.881-0.556-3.975,0l-12.47,6.354c-1.093,0.557-1.284,0.296-0.424-0.578l13.319-13.545
		c0.86-0.875,2.267-0.875,3.126,0L39.517,30.63C40.377,31.504,40.187,31.764,39.094,31.207z"/>
	<g>
		<path fill="#424143" d="M68.639,31.399h-5.037L59.684,16.19h5.159l1.387,9.929l2.312-9.929h5.475l2.312,9.929l1.412-9.929h4.989
			l-3.942,15.209h-5.062l-2.53-9.904L68.639,31.399z"/>
		<path fill="#424143" d="M98.107,31.399h-4.745l-0.949-2.847h-5.159l-0.9,2.847h-4.721l5.232-15.209h6.108L98.107,31.399z
			 M89.883,19.621L88.18,24.95h3.309L89.883,19.621z"/>
		<path fill="#424143" d="M99.543,31.399V16.19h4.794v11.291h5.864v3.918H99.543z"/>
		<path fill="#424143" d="M123.074,16.19h4.453v15.355h-5.085l-5.476-8.76v8.614h-4.453V16.19h5.159l5.402,8.639V16.19z"/>
		<path fill="#424143" d="M143.843,28.053c-0.349,0.852-0.835,1.553-1.46,2.105s-1.371,0.957-2.238,1.216
			c-0.868,0.26-1.821,0.39-2.859,0.39c-1.006,0-1.943-0.114-2.811-0.341c-0.868-0.227-1.618-0.596-2.251-1.107
			s-1.128-1.168-1.485-1.97c-0.356-0.803-0.535-1.781-0.535-2.933V16.19h4.793v8.639c0,1.022,0.187,1.777,0.56,2.263
			c0.373,0.487,0.974,0.73,1.801,0.73c0.794,0,1.367-0.21,1.716-0.633c0.348-0.421,0.523-1.168,0.523-2.239v-8.76h4.77v8.833
			C144.367,26.191,144.192,27.201,143.843,28.053z"/>
		<path fill="#424143" d="M155.608,20.108v11.291h-4.794V20.108h-4.599V16.19h13.992v3.918H155.608z"/>
		<path fill="#424143" d="M178.336,20.862c-0.52-0.308-1.103-0.556-1.752-0.742c-0.649-0.186-1.282-0.28-1.898-0.28
			c-1.168,0-2.085,0.349-2.75,1.046s-0.998,1.655-0.998,2.872c0,1.233,0.316,2.206,0.949,2.919c0.633,0.715,1.565,1.071,2.799,1.071
			c0.713,0,1.387-0.097,2.02-0.291c0.633-0.195,1.249-0.471,1.85-0.828l1.046,4.113c-0.292,0.146-0.641,0.284-1.046,0.413
			c-0.406,0.13-0.84,0.24-1.302,0.329c-0.462,0.088-0.933,0.158-1.411,0.207c-0.479,0.049-0.946,0.073-1.399,0.073
			c-1.265,0-2.413-0.167-3.443-0.499c-1.03-0.332-1.907-0.827-2.628-1.484c-0.722-0.657-1.277-1.48-1.667-2.47
			c-0.389-0.989-0.584-2.142-0.584-3.456c0-1.233,0.195-2.344,0.584-3.334c0.389-0.989,0.949-1.833,1.679-2.53
			s1.622-1.233,2.677-1.606c1.054-0.373,2.247-0.56,3.577-0.56c0.974,0,1.89,0.097,2.75,0.292c0.86,0.195,1.655,0.455,2.385,0.779
			L178.336,20.862z"/>
		<path fill="#424143" d="M186.536,31.399h-4.793V16.19h6.887c2.125,0,3.735,0.45,4.83,1.351c1.095,0.901,1.643,2.114,1.643,3.638
			c0,0.974-0.239,1.846-0.718,2.616s-1.229,1.359-2.25,1.764l3.771,5.84H190.6l-2.725-4.624l-1.339,0.122V31.399z M188.093,23.466
			c0.73-0.081,1.253-0.271,1.569-0.571c0.317-0.301,0.475-0.758,0.475-1.375c0-0.568-0.179-0.99-0.536-1.266
			c-0.357-0.275-0.973-0.414-1.849-0.414h-1.314v3.65L188.093,23.466z"/>
		<path fill="#424143" d="M197.657,31.399V16.19h11.851v3.748h-7.203v1.947h5.694v3.747h-5.694v2.021h7.203v3.747H197.657z"/>
		<path fill="#424143" d="M211.94,31.399V16.19h11.851v3.748h-7.203v1.947h5.695v3.747h-5.695v2.021h7.203v3.747H211.94z"/>
		<path fill="#424143" d="M231.042,22.639l4.332-6.449h5.378l-5.475,7.374l5.646,7.835h-5.622l-4.259-6.424h-0.024v6.424h-4.794
			V16.19h4.794v6.449H231.042z"/>
		<path fill="#424143" d="M258.54,20.862c-0.519-0.308-1.104-0.556-1.752-0.742c-0.649-0.186-1.282-0.28-1.898-0.28
			c-1.168,0-2.085,0.349-2.75,1.046c-0.666,0.698-0.998,1.655-0.998,2.872c0,1.233,0.316,2.206,0.949,2.919
			c0.633,0.715,1.565,1.071,2.799,1.071c0.713,0,1.387-0.097,2.02-0.291c0.632-0.195,1.249-0.471,1.85-0.828l1.046,4.113
			c-0.292,0.146-0.642,0.284-1.046,0.413c-0.406,0.13-0.839,0.24-1.302,0.329c-0.462,0.088-0.933,0.158-1.411,0.207
			c-0.479,0.049-0.946,0.073-1.4,0.073c-1.265,0-2.413-0.167-3.443-0.499c-1.03-0.332-1.906-0.827-2.628-1.484
			c-0.723-0.657-1.278-1.48-1.667-2.47c-0.389-0.989-0.584-2.142-0.584-3.456c0-1.233,0.195-2.344,0.584-3.334
			c0.389-0.989,0.95-1.833,1.679-2.53c0.73-0.697,1.622-1.233,2.677-1.606c1.055-0.373,2.247-0.56,3.577-0.56
			c0.974,0,1.891,0.097,2.75,0.292c0.86,0.195,1.655,0.455,2.385,0.779L258.54,20.862z"/>
		<path fill="#424143" d="M271.705,31.399v-5.669h-4.965v5.669h-4.794V16.19h4.794v5.548h4.965V16.19h4.792v15.209H271.705z"/>
		<path fill="#424143" d="M292.813,28.053c-0.348,0.852-0.835,1.553-1.459,2.105c-0.625,0.552-1.372,0.957-2.239,1.216
			c-0.869,0.26-1.822,0.39-2.859,0.39c-1.006,0-1.943-0.114-2.811-0.341c-0.868-0.227-1.619-0.596-2.25-1.107
			c-0.633-0.511-1.128-1.168-1.485-1.97c-0.357-0.803-0.535-1.781-0.535-2.933V16.19h4.794v8.639c0,1.022,0.186,1.777,0.559,2.263
			c0.373,0.487,0.973,0.73,1.801,0.73c0.795,0,1.366-0.21,1.715-0.633c0.349-0.421,0.523-1.168,0.523-2.239v-8.76h4.77v8.833
			C293.337,26.191,293.163,27.201,292.813,28.053z"/>
		<path fill="#424143" d="M300.808,31.399h-4.794V16.19h6.887c2.125,0,3.735,0.45,4.83,1.351c1.095,0.901,1.643,2.114,1.643,3.638
			c0,0.974-0.239,1.846-0.718,2.616s-1.229,1.359-2.251,1.764l3.771,5.84h-5.305l-2.725-4.624l-1.338,0.122V31.399z M302.365,23.466
			c0.73-0.081,1.254-0.271,1.57-0.571c0.316-0.301,0.474-0.758,0.474-1.375c0-0.568-0.179-0.99-0.535-1.266
			c-0.357-0.275-0.973-0.414-1.849-0.414h-1.314v3.65L302.365,23.466z"/>
		<path fill="#424143" d="M323.22,20.862c-0.519-0.308-1.104-0.556-1.752-0.742c-0.649-0.186-1.282-0.28-1.898-0.28
			c-1.167,0-2.084,0.349-2.749,1.046c-0.666,0.698-0.999,1.655-0.999,2.872c0,1.233,0.317,2.206,0.95,2.919
			c0.632,0.715,1.565,1.071,2.798,1.071c0.714,0,1.388-0.097,2.02-0.291c0.633-0.195,1.249-0.471,1.85-0.828l1.046,4.113
			c-0.292,0.146-0.641,0.284-1.046,0.413c-0.406,0.13-0.839,0.24-1.302,0.329c-0.462,0.088-0.933,0.158-1.412,0.207
			c-0.479,0.049-0.945,0.073-1.399,0.073c-1.266,0-2.414-0.167-3.443-0.499c-1.03-0.332-1.906-0.827-2.628-1.484
			c-0.722-0.657-1.278-1.48-1.667-2.47c-0.389-0.989-0.583-2.142-0.583-3.456c0-1.233,0.195-2.344,0.583-3.334
			c0.39-0.989,0.949-1.833,1.679-2.53s1.622-1.233,2.677-1.606c1.054-0.373,2.247-0.56,3.577-0.56c0.973,0,1.89,0.097,2.75,0.292
			c0.86,0.195,1.655,0.455,2.385,0.779L323.22,20.862z"/>
		<path fill="#424143" d="M336.384,31.399v-5.669h-4.964v5.669h-4.794V16.19h4.794v5.548h4.964V16.19h4.794v15.209H336.384z"/>
	</g>
</g>
</svg>
