<?xml version="1.0" encoding="utf-8"?>
<!DOCTYPE svg PUBLIC "-//W3C//DTD SVG 1.1//EN" "http://www.w3.org/Graphics/SVG/1.1/DTD/svg11.dtd">
<svg version="1.1" id="Layer_1" xmlns="http://www.w3.org/2000/svg" xmlns:xlink="http://www.w3.org/1999/xlink" x="0px" y="0px"
	 width="20px" height="21px" viewBox="0 0 20 21" enable-background="new 0 0 20 21" xml:space="preserve">
<path fill="#999999" d="M19.381,18.263l-5.429-5.375c1.104-1.342,1.769-3.058,1.769-4.927c0-4.279-3.481-7.76-7.76-7.76
	S0.2,3.682,0.2,7.96s3.481,7.761,7.76,7.761c1.325,0,2.573-0.336,3.666-0.924c0.008,0.008,0.01,0.02,0.019,0.027l5.625,5.57
	c0.293,0.289,0.674,0.434,1.056,0.434c0.387,0,0.772-0.148,1.066-0.445C19.974,19.796,19.97,18.845,19.381,18.263z M2.2,7.96
	c0-3.176,2.584-5.76,5.76-5.76s5.76,2.584,5.76,5.76s-2.584,5.761-5.76,5.761S2.2,11.137,2.2,7.96z"/>
</svg>
